<svg xmlns="http://www.w3.org/2000/svg" width="32" height="32" viewBox="0 0 8.467 8.467"><path fill-rule="evenodd" d="M 15.996094 1.0039062 C 7.7236672 1.0039062 0.99609375 7.7314653 0.99609375 16.003906 C 0.99609375 24.276309 7.7236672 31.003906 15.996094 31.003906 C 24.26852 31.003906 30.996094 24.276309 30.996094 16.003906 C 30.996094 7.7314653 24.26852 1.0039062 15.996094 1.0039062 z M 15.996094 2.9960938 C 23.18764 2.9960938 29.003906 8.8123346 29.003906 16.003906 C 29.003906 23.19544 23.18764 29.003906 15.996094 29.003906 C 8.8045474 29.003906 2.9960938 23.19544 2.9960938 16.003906 C 2.9960938 8.8123346 8.8045474 2.9960938 15.996094 2.9960938 z M 16 5 C 13.8443 5.0005669 11.736108 5.6374727 9.9394531 6.8261719 A 1.0005276 1.0005276 0 1 0 11.044922 8.4941406 C 12.515673 7.5210257 14.23787 7.0004913 16 7 C 20.98209 6.998715 25 11.0176 25 16 C 25 20.982438 20.982408 25 16 25 C 11.017592 25 6.9983 20.982022 7 16 C 7.0006013 14.237984 7.5223125 12.515574 8.4960938 11.044922 A 1.0005239 1.0005239 0 0 0 6.828125 9.9394531 C 5.6387118 11.735787 5.0007363 13.843817 5 16 C 4.9979307 22.063723 9.9367122 27 16 27 C 22.063288 27 27 22.063307 27 16 C 27 9.9367307 22.063606 4.9983748 16 5 z M 15.982422 8.9824219 A 1.0001001 1.0001001 0 0 0 15 10.001953 L 15 16.003906 A 1.0001001 1.0001001 0 0 0 15.294922 16.705078 L 19.296875 20.705078 A 1.0001001 1.0001001 0 1 0 20.707031 19.294922 L 17 15.582031 L 17 10.001953 A 1.0001001 1.0001001 0 0 0 15.982422 8.9824219 z " color="#000" font-family="sans-serif" font-weight="400" overflow="visible" paint-order="stroke fill markers" transform="scale(.26458)" style="line-height:normal;font-variant-ligatures:normal;font-variant-position:normal;font-variant-caps:normal;font-variant-numeric:normal;font-variant-alternates:normal;font-feature-settings:normal;text-indent:0;text-align:start;text-decoration-line:none;text-decoration-style:solid;text-decoration-color:#000;text-transform:none;text-orientation:mixed;shape-padding:0;isolation:auto;mix-blend-mode:normal"/></svg>